<mxfile host="app.diagrams.net" modified="2023-07-22T14:15:22.572Z" agent="Mozilla/5.0 (Windows NT 10.0; Win64; x64) AppleWebKit/537.36 (KHTML, like Gecko) Chrome/115.0.0.0 Safari/537.36 Edg/115.0.1901.183" etag="hPAC1uPbBv8mpD7JRrfD" version="21.6.5" type="github">
  <diagram name="Halaman-1" id="pGlt9sQBTPmMqpuyP7cL">
    <mxGraphModel dx="1154" dy="527" grid="1" gridSize="10" guides="1" tooltips="1" connect="1" arrows="1" fold="1" page="1" pageScale="1" pageWidth="827" pageHeight="1169" math="0" shadow="0">
      <root>
        <mxCell id="0" />
        <mxCell id="1" parent="0" />
        <mxCell id="QSW9ihO3JUug-gnyEK0g-1" value="Aktor" style="swimlane;" parent="1" vertex="1">
          <mxGeometry x="120" y="110" width="200" height="860" as="geometry" />
        </mxCell>
        <mxCell id="QSW9ihO3JUug-gnyEK0g-40" style="edgeStyle=orthogonalEdgeStyle;rounded=0;orthogonalLoop=1;jettySize=auto;html=1;entryX=0.5;entryY=0;entryDx=0;entryDy=0;" parent="QSW9ihO3JUug-gnyEK0g-1" source="QSW9ihO3JUug-gnyEK0g-2" target="QSW9ihO3JUug-gnyEK0g-3" edge="1">
          <mxGeometry relative="1" as="geometry" />
        </mxCell>
        <mxCell id="QSW9ihO3JUug-gnyEK0g-2" value="" style="ellipse;html=1;shape=endState;fillColor=strokeColor;" parent="QSW9ihO3JUug-gnyEK0g-1" vertex="1">
          <mxGeometry x="80" y="60" width="30" height="30" as="geometry" />
        </mxCell>
        <mxCell id="QSW9ihO3JUug-gnyEK0g-3" value="&lt;font face=&quot;Times New Roman&quot;&gt;Membuka Halaman Website&lt;/font&gt;" style="html=1;align=center;verticalAlign=top;rounded=1;absoluteArcSize=1;arcSize=10;dashed=0;whiteSpace=wrap;" parent="QSW9ihO3JUug-gnyEK0g-1" vertex="1">
          <mxGeometry x="20" y="130" width="150" height="30" as="geometry" />
        </mxCell>
        <mxCell id="QSW9ihO3JUug-gnyEK0g-16" style="edgeStyle=orthogonalEdgeStyle;rounded=0;orthogonalLoop=1;jettySize=auto;html=1;entryX=0.5;entryY=0;entryDx=0;entryDy=0;" parent="QSW9ihO3JUug-gnyEK0g-1" source="QSW9ihO3JUug-gnyEK0g-13" target="QSW9ihO3JUug-gnyEK0g-14" edge="1">
          <mxGeometry relative="1" as="geometry" />
        </mxCell>
        <mxCell id="QSW9ihO3JUug-gnyEK0g-13" value="&lt;font face=&quot;Times New Roman&quot;&gt;Mengisi Formulir&lt;/font&gt;" style="html=1;align=center;verticalAlign=top;rounded=1;absoluteArcSize=1;arcSize=10;dashed=0;whiteSpace=wrap;" parent="QSW9ihO3JUug-gnyEK0g-1" vertex="1">
          <mxGeometry x="30" y="290" width="140" height="30" as="geometry" />
        </mxCell>
        <mxCell id="QSW9ihO3JUug-gnyEK0g-14" value="&lt;font face=&quot;Times New Roman&quot;&gt;Menekan tombol daftar&lt;/font&gt;" style="html=1;align=center;verticalAlign=top;rounded=1;absoluteArcSize=1;arcSize=10;dashed=0;whiteSpace=wrap;" parent="QSW9ihO3JUug-gnyEK0g-1" vertex="1">
          <mxGeometry x="30" y="360" width="140" height="30" as="geometry" />
        </mxCell>
        <mxCell id="QSW9ihO3JUug-gnyEK0g-37" style="edgeStyle=orthogonalEdgeStyle;rounded=0;orthogonalLoop=1;jettySize=auto;html=1;entryX=0.5;entryY=0;entryDx=0;entryDy=0;" parent="QSW9ihO3JUug-gnyEK0g-1" source="QSW9ihO3JUug-gnyEK0g-31" target="QSW9ihO3JUug-gnyEK0g-35" edge="1">
          <mxGeometry relative="1" as="geometry" />
        </mxCell>
        <mxCell id="QSW9ihO3JUug-gnyEK0g-31" value="&lt;font face=&quot;Times New Roman&quot;&gt;Mencetak Formulir&lt;/font&gt;" style="html=1;align=center;verticalAlign=top;rounded=1;absoluteArcSize=1;arcSize=10;dashed=0;whiteSpace=wrap;" parent="QSW9ihO3JUug-gnyEK0g-1" vertex="1">
          <mxGeometry x="30" y="645" width="140" height="30" as="geometry" />
        </mxCell>
        <mxCell id="QSW9ihO3JUug-gnyEK0g-39" style="edgeStyle=orthogonalEdgeStyle;rounded=0;orthogonalLoop=1;jettySize=auto;html=1;entryX=0.5;entryY=0;entryDx=0;entryDy=0;" parent="QSW9ihO3JUug-gnyEK0g-1" source="QSW9ihO3JUug-gnyEK0g-35" target="QSW9ihO3JUug-gnyEK0g-38" edge="1">
          <mxGeometry relative="1" as="geometry" />
        </mxCell>
        <mxCell id="QSW9ihO3JUug-gnyEK0g-35" value="&lt;font face=&quot;Times New Roman&quot;&gt;Memeberikan formulir pendaftaran pada panitia&lt;/font&gt;" style="html=1;align=center;verticalAlign=top;rounded=1;absoluteArcSize=1;arcSize=10;dashed=0;whiteSpace=wrap;" parent="QSW9ihO3JUug-gnyEK0g-1" vertex="1">
          <mxGeometry x="30" y="720" width="140" height="40" as="geometry" />
        </mxCell>
        <mxCell id="QSW9ihO3JUug-gnyEK0g-38" value="" style="ellipse;html=1;shape=endState;fillColor=strokeColor;" parent="QSW9ihO3JUug-gnyEK0g-1" vertex="1">
          <mxGeometry x="85" y="810" width="30" height="30" as="geometry" />
        </mxCell>
        <mxCell id="QSW9ihO3JUug-gnyEK0g-4" value="Sistem" style="swimlane;" parent="1" vertex="1">
          <mxGeometry x="320" y="110" width="200" height="860" as="geometry" />
        </mxCell>
        <mxCell id="QSW9ihO3JUug-gnyEK0g-6" value="&lt;font face=&quot;Times New Roman&quot;&gt;Menampilkan formulir pendaftaran&lt;/font&gt;" style="html=1;align=center;verticalAlign=top;rounded=1;absoluteArcSize=1;arcSize=10;dashed=0;whiteSpace=wrap;" parent="QSW9ihO3JUug-gnyEK0g-4" vertex="1">
          <mxGeometry x="30" y="125" width="140" height="40" as="geometry" />
        </mxCell>
        <mxCell id="QSW9ihO3JUug-gnyEK0g-20" style="edgeStyle=orthogonalEdgeStyle;rounded=0;orthogonalLoop=1;jettySize=auto;html=1;entryX=0.5;entryY=0;entryDx=0;entryDy=0;" parent="QSW9ihO3JUug-gnyEK0g-4" source="QSW9ihO3JUug-gnyEK0g-17" target="QSW9ihO3JUug-gnyEK0g-19" edge="1">
          <mxGeometry relative="1" as="geometry" />
        </mxCell>
        <mxCell id="QSW9ihO3JUug-gnyEK0g-17" value="&lt;font face=&quot;Times New Roman&quot;&gt;Memeriksa Kesesuaian Data&lt;/font&gt;" style="html=1;align=center;verticalAlign=top;rounded=1;absoluteArcSize=1;arcSize=10;dashed=0;whiteSpace=wrap;" parent="QSW9ihO3JUug-gnyEK0g-4" vertex="1">
          <mxGeometry x="30" y="355" width="140" height="40" as="geometry" />
        </mxCell>
        <mxCell id="QSW9ihO3JUug-gnyEK0g-23" style="edgeStyle=orthogonalEdgeStyle;rounded=0;orthogonalLoop=1;jettySize=auto;html=1;" parent="QSW9ihO3JUug-gnyEK0g-4" source="QSW9ihO3JUug-gnyEK0g-19" edge="1">
          <mxGeometry relative="1" as="geometry">
            <mxPoint x="100" y="560" as="targetPoint" />
          </mxGeometry>
        </mxCell>
        <mxCell id="QSW9ihO3JUug-gnyEK0g-19" value="" style="rhombus;" parent="QSW9ihO3JUug-gnyEK0g-4" vertex="1">
          <mxGeometry x="85" y="460" width="30" height="30" as="geometry" />
        </mxCell>
        <mxCell id="QSW9ihO3JUug-gnyEK0g-34" style="edgeStyle=orthogonalEdgeStyle;rounded=0;orthogonalLoop=1;jettySize=auto;html=1;entryX=0.5;entryY=0;entryDx=0;entryDy=0;" parent="QSW9ihO3JUug-gnyEK0g-4" source="QSW9ihO3JUug-gnyEK0g-24" target="QSW9ihO3JUug-gnyEK0g-30" edge="1">
          <mxGeometry relative="1" as="geometry" />
        </mxCell>
        <mxCell id="QSW9ihO3JUug-gnyEK0g-24" value="&lt;font face=&quot;Times New Roman&quot;&gt;Menyimpan data formulir ke database&lt;/font&gt;" style="html=1;align=center;verticalAlign=top;rounded=1;absoluteArcSize=1;arcSize=10;dashed=0;whiteSpace=wrap;" parent="QSW9ihO3JUug-gnyEK0g-4" vertex="1">
          <mxGeometry x="30" y="560" width="140" height="40" as="geometry" />
        </mxCell>
        <mxCell id="QSW9ihO3JUug-gnyEK0g-26" value="&lt;font face=&quot;Times New Roman&quot;&gt;Sesuai?&lt;/font&gt;" style="text;html=1;align=center;verticalAlign=middle;resizable=0;points=[];autosize=1;strokeColor=none;fillColor=none;" parent="QSW9ihO3JUug-gnyEK0g-4" vertex="1">
          <mxGeometry x="110" y="460" width="60" height="30" as="geometry" />
        </mxCell>
        <mxCell id="QSW9ihO3JUug-gnyEK0g-27" value="No" style="text;html=1;align=center;verticalAlign=middle;resizable=0;points=[];autosize=1;strokeColor=none;fillColor=none;" parent="QSW9ihO3JUug-gnyEK0g-4" vertex="1">
          <mxGeometry x="40" y="450" width="40" height="30" as="geometry" />
        </mxCell>
        <mxCell id="QSW9ihO3JUug-gnyEK0g-28" value="Yes" style="text;html=1;align=center;verticalAlign=middle;resizable=0;points=[];autosize=1;strokeColor=none;fillColor=none;" parent="QSW9ihO3JUug-gnyEK0g-4" vertex="1">
          <mxGeometry x="70" y="490" width="40" height="30" as="geometry" />
        </mxCell>
        <mxCell id="QSW9ihO3JUug-gnyEK0g-30" value="&lt;font face=&quot;Times New Roman&quot;&gt;Memeberikan file pdf&amp;nbsp; formulir pendaftaran&lt;/font&gt;" style="html=1;align=center;verticalAlign=top;rounded=1;absoluteArcSize=1;arcSize=10;dashed=0;whiteSpace=wrap;" parent="QSW9ihO3JUug-gnyEK0g-4" vertex="1">
          <mxGeometry x="30" y="640" width="140" height="40" as="geometry" />
        </mxCell>
        <mxCell id="QSW9ihO3JUug-gnyEK0g-8" style="edgeStyle=orthogonalEdgeStyle;rounded=0;orthogonalLoop=1;jettySize=auto;html=1;entryX=0;entryY=0.5;entryDx=0;entryDy=0;" parent="1" source="QSW9ihO3JUug-gnyEK0g-3" target="QSW9ihO3JUug-gnyEK0g-6" edge="1">
          <mxGeometry relative="1" as="geometry" />
        </mxCell>
        <mxCell id="QSW9ihO3JUug-gnyEK0g-9" style="edgeStyle=orthogonalEdgeStyle;rounded=0;orthogonalLoop=1;jettySize=auto;html=1;entryX=0.5;entryY=0;entryDx=0;entryDy=0;" parent="1" source="QSW9ihO3JUug-gnyEK0g-6" target="QSW9ihO3JUug-gnyEK0g-13" edge="1">
          <mxGeometry relative="1" as="geometry">
            <Array as="points">
              <mxPoint x="420" y="335" />
              <mxPoint x="220" y="335" />
            </Array>
            <mxPoint x="235" y="335" as="targetPoint" />
          </mxGeometry>
        </mxCell>
        <mxCell id="QSW9ihO3JUug-gnyEK0g-18" style="edgeStyle=orthogonalEdgeStyle;rounded=0;orthogonalLoop=1;jettySize=auto;html=1;" parent="1" source="QSW9ihO3JUug-gnyEK0g-14" target="QSW9ihO3JUug-gnyEK0g-17" edge="1">
          <mxGeometry relative="1" as="geometry" />
        </mxCell>
        <mxCell id="QSW9ihO3JUug-gnyEK0g-21" style="edgeStyle=orthogonalEdgeStyle;rounded=0;orthogonalLoop=1;jettySize=auto;html=1;entryX=0;entryY=0.5;entryDx=0;entryDy=0;" parent="1" source="QSW9ihO3JUug-gnyEK0g-19" target="QSW9ihO3JUug-gnyEK0g-13" edge="1">
          <mxGeometry relative="1" as="geometry">
            <mxPoint x="205" y="335" as="targetPoint" />
            <Array as="points">
              <mxPoint x="130" y="585" />
              <mxPoint x="130" y="415" />
            </Array>
          </mxGeometry>
        </mxCell>
        <mxCell id="QSW9ihO3JUug-gnyEK0g-32" style="edgeStyle=orthogonalEdgeStyle;rounded=0;orthogonalLoop=1;jettySize=auto;html=1;entryX=1;entryY=0.5;entryDx=0;entryDy=0;" parent="1" source="QSW9ihO3JUug-gnyEK0g-30" target="QSW9ihO3JUug-gnyEK0g-31" edge="1">
          <mxGeometry relative="1" as="geometry" />
        </mxCell>
      </root>
    </mxGraphModel>
  </diagram>
</mxfile>
